<svg width="186" height="81" viewBox="0 0 186 81" fill="none" xmlns="http://www.w3.org/2000/svg">
<path d="M8.20739 2.95747H6.87784C6.8267 2.67338 6.73153 2.42338 6.59233 2.20747C6.45313 1.99157 6.28267 1.80833 6.08097 1.65776C5.87926 1.50719 5.65341 1.39355 5.40341 1.31685C5.15625 1.24015 4.89347 1.20179 4.61506 1.20179C4.11222 1.20179 3.66193 1.32821 3.2642 1.58105C2.86932 1.8339 2.55682 2.20463 2.3267 2.69327C2.09943 3.18191 1.9858 3.7785 1.9858 4.48304C1.9858 5.19327 2.09943 5.7927 2.3267 6.28134C2.55682 6.76998 2.87074 7.13929 3.26847 7.38929C3.66619 7.63929 4.11364 7.76429 4.6108 7.76429C4.88636 7.76429 5.14773 7.72736 5.39489 7.6535C5.64489 7.57679 5.87074 7.46458 6.07244 7.31685C6.27415 7.16912 6.4446 6.98873 6.58381 6.77566C6.72585 6.55975 6.82386 6.31259 6.87784 6.03418L8.20739 6.03844C8.13636 6.46742 7.99858 6.8623 7.79403 7.2231C7.59233 7.58105 7.33239 7.89071 7.0142 8.15208C6.69886 8.4106 6.33807 8.61088 5.93182 8.75293C5.52557 8.89498 5.08239 8.966 4.60227 8.966C3.84659 8.966 3.1733 8.78702 2.58239 8.42907C1.99148 8.06827 1.52557 7.55265 1.18466 6.88219C0.846591 6.21174 0.677557 5.41202 0.677557 4.48304C0.677557 3.55122 0.848011 2.75151 1.18892 2.0839C1.52983 1.41344 1.99574 0.899236 2.58665 0.541282C3.17756 0.180486 3.84943 8.84533e-05 4.60227 8.84533e-05C5.06534 8.84533e-05 5.49716 0.0668499 5.89773 0.200373C6.30114 0.331054 6.66335 0.524236 6.98438 0.779918C7.3054 1.03276 7.57102 1.34242 7.78125 1.7089C7.99148 2.07253 8.13352 2.48872 8.20739 2.95747ZM13.8271 6.13219V2.30122H15.1055V8.84668H13.8526V7.71316H13.7844C13.6339 8.06259 13.3924 8.35378 13.06 8.58674C12.7305 8.81685 12.32 8.93191 11.8285 8.93191C11.408 8.93191 11.0359 8.83958 10.712 8.65492C10.391 8.46742 10.1381 8.19043 9.95348 7.82395C9.77166 7.45748 9.68075 7.00435 9.68075 6.46458V2.30122H10.9549V6.31117C10.9549 6.75719 11.0785 7.1123 11.3256 7.37651C11.5728 7.64071 11.8938 7.77282 12.2887 7.77282C12.5273 7.77282 12.7646 7.71316 13.0004 7.59384C13.239 7.47452 13.4364 7.29412 13.5927 7.05265C13.7518 6.81117 13.8299 6.50435 13.8271 6.13219ZM16.8175 8.84668V2.30122H18.049V3.341H18.1172C18.2365 2.98872 18.4467 2.71174 18.7479 2.51003C19.0518 2.30549 19.3956 2.20321 19.7791 2.20321C19.8587 2.20321 19.9524 2.20605 20.0604 2.21174C20.1712 2.21742 20.2578 2.22452 20.3203 2.23304V3.45179C20.2692 3.43759 20.1783 3.42196 20.0476 3.40492C19.9169 3.38503 19.7862 3.37509 19.6555 3.37509C19.3544 3.37509 19.0859 3.43901 18.8501 3.56685C18.6172 3.69185 18.4325 3.86657 18.2962 4.091C18.1598 4.31259 18.0916 4.56543 18.0916 4.84952V8.84668H16.8175ZM26.3278 3.89924L25.1729 4.10378C25.1246 3.95605 25.0479 3.81543 24.9428 3.68191C24.8406 3.54838 24.7013 3.43901 24.5252 3.35378C24.3491 3.26855 24.1289 3.22594 23.8647 3.22594C23.5039 3.22594 23.2028 3.30691 22.9613 3.46884C22.7198 3.62793 22.5991 3.8339 22.5991 4.08674C22.5991 4.30549 22.68 4.48162 22.842 4.61515C23.0039 4.74867 23.2653 4.85804 23.6261 4.94327L24.6658 5.18191C25.2681 5.32111 25.717 5.5356 26.0124 5.82537C26.3079 6.11515 26.4556 6.49157 26.4556 6.95463C26.4556 7.34668 26.342 7.69611 26.1147 8.00293C25.8903 8.30691 25.5763 8.54554 25.1729 8.71884C24.7724 8.89213 24.3079 8.97878 23.7795 8.97878C23.0465 8.97878 22.4485 8.82253 21.9854 8.51003C21.5224 8.19469 21.2383 7.74725 21.1332 7.1677L22.3647 6.9802C22.4414 7.30123 22.5991 7.54412 22.8377 7.7089C23.0763 7.87083 23.3874 7.95179 23.771 7.95179C24.1886 7.95179 24.5224 7.86515 24.7724 7.69185C25.0224 7.51571 25.1474 7.30123 25.1474 7.04838C25.1474 6.84384 25.0707 6.67196 24.9173 6.53276C24.7667 6.39355 24.5352 6.28844 24.2227 6.21742L23.1147 5.97452C22.5039 5.83532 22.0522 5.61373 21.7596 5.30975C21.4698 5.00577 21.3249 4.62083 21.3249 4.15492C21.3249 3.76855 21.4329 3.43049 21.6488 3.14071C21.8647 2.85094 22.163 2.62509 22.5437 2.46316C22.9244 2.29838 23.3604 2.216 23.8519 2.216C24.5593 2.216 25.1161 2.36941 25.5224 2.67622C25.9286 2.9802 26.1971 3.38787 26.3278 3.89924ZM30.6136 8.97878C30 8.97878 29.4645 8.83816 29.0071 8.55691C28.5497 8.27566 28.1946 7.88219 27.9418 7.37651C27.6889 6.87083 27.5625 6.27992 27.5625 5.60378C27.5625 4.9248 27.6889 4.33105 27.9418 3.82253C28.1946 3.31401 28.5497 2.91912 29.0071 2.63787C29.4645 2.35662 30 2.216 30.6136 2.216C31.2273 2.216 31.7628 2.35662 32.2202 2.63787C32.6776 2.91912 33.0327 3.31401 33.2855 3.82253C33.5384 4.33105 33.6648 4.9248 33.6648 5.60378C33.6648 6.27992 33.5384 6.87083 33.2855 7.37651C33.0327 7.88219 32.6776 8.27566 32.2202 8.55691C31.7628 8.83816 31.2273 8.97878 30.6136 8.97878ZM30.6179 7.90918C31.0156 7.90918 31.3452 7.80407 31.6065 7.59384C31.8679 7.38361 32.0611 7.10378 32.1861 6.75435C32.3139 6.40492 32.3778 6.01998 32.3778 5.59952C32.3778 5.18191 32.3139 4.79838 32.1861 4.44895C32.0611 4.09668 31.8679 3.81401 31.6065 3.60094C31.3452 3.38787 31.0156 3.28134 30.6179 3.28134C30.2173 3.28134 29.8849 3.38787 29.6207 3.60094C29.3594 3.81401 29.1648 4.09668 29.0369 4.44895C28.9119 4.79838 28.8494 5.18191 28.8494 5.59952C28.8494 6.01998 28.9119 6.40492 29.0369 6.75435C29.1648 7.10378 29.3594 7.38361 29.6207 7.59384C29.8849 7.80407 30.2173 7.90918 30.6179 7.90918ZM35.087 8.84668V2.30122H36.3185V3.341H36.3867C36.506 2.98872 36.7163 2.71174 37.0174 2.51003C37.3214 2.30549 37.6651 2.20321 38.0487 2.20321C38.1282 2.20321 38.2219 2.20605 38.3299 2.21174C38.4407 2.21742 38.5273 2.22452 38.5898 2.23304V3.45179C38.5387 3.43759 38.4478 3.42196 38.3171 3.40492C38.1864 3.38503 38.0558 3.37509 37.9251 3.37509C37.6239 3.37509 37.3555 3.43901 37.1197 3.56685C36.8867 3.69185 36.7021 3.86657 36.5657 4.091C36.4293 4.31259 36.3612 4.56543 36.3612 4.84952V8.84668H35.087ZM43.1623 4.60662V5.71032H39.293V4.60662H43.1623ZM49.0067 6.13219V2.30122H50.2852V8.84668H49.0323V7.71316H48.9641C48.8136 8.06259 48.5721 8.35378 48.2397 8.58674C47.9102 8.81685 47.4996 8.93191 47.0082 8.93191C46.5877 8.93191 46.2156 8.83958 45.8917 8.65492C45.5707 8.46742 45.3178 8.19043 45.1332 7.82395C44.9513 7.45748 44.8604 7.00435 44.8604 6.46458V2.30122H46.1346V6.31117C46.1346 6.75719 46.2582 7.1123 46.5053 7.37651C46.7525 7.64071 47.0735 7.77282 47.4684 7.77282C47.707 7.77282 47.9442 7.71316 48.18 7.59384C48.4187 7.47452 48.6161 7.29412 48.7724 7.05265C48.9315 6.81117 49.0096 6.50435 49.0067 6.13219ZM51.9972 11.3012V2.30122H53.2415V3.3623H53.348C53.4219 3.22594 53.5284 3.06827 53.6676 2.88929C53.8068 2.71032 54 2.55407 54.2472 2.42054C54.4943 2.28418 54.821 2.216 55.2273 2.216C55.7557 2.216 56.2273 2.34952 56.642 2.61657C57.0568 2.88361 57.3821 3.26855 57.6179 3.7714C57.8565 4.27424 57.9759 4.87935 57.9759 5.58674C57.9759 6.29412 57.858 6.90066 57.6222 7.40634C57.3864 7.90918 57.0625 8.29696 56.6506 8.56969C56.2386 8.83958 55.7685 8.97452 55.2401 8.97452C54.8423 8.97452 54.517 8.90776 54.2642 8.77424C54.0142 8.64071 53.8182 8.48446 53.6761 8.30549C53.5341 8.12651 53.4247 7.96742 53.348 7.82821H53.2713V11.3012H51.9972ZM53.2457 5.57395C53.2457 6.03418 53.3125 6.43759 53.446 6.78418C53.5795 7.13077 53.7727 7.40208 54.0256 7.5981C54.2784 7.79128 54.5881 7.88787 54.9545 7.88787C55.3352 7.88787 55.6534 7.78702 55.9091 7.58532C56.1648 7.38077 56.358 7.10378 56.4886 6.75435C56.6222 6.40492 56.6889 6.01145 56.6889 5.57395C56.6889 5.14213 56.6236 4.75435 56.4929 4.4106C56.3651 4.06685 56.1719 3.79554 55.9134 3.59668C55.6577 3.39782 55.3381 3.29838 54.9545 3.29838C54.5852 3.29838 54.2727 3.39355 54.017 3.5839C53.7642 3.77424 53.5724 4.03986 53.4418 4.38077C53.3111 4.72168 53.2457 5.11941 53.2457 5.57395Z" fill="#636363"/>
<rect x="0.5" y="27.3467" width="185" height="53" rx="4.5" stroke="#9747FF" stroke-dasharray="10 5"/>
<path fill-rule="evenodd" clip-rule="evenodd" d="M35.1972 52.6728L19.4381 46.5442C18.3156 46.1077 17.2795 47.3445 17.906 48.3731L20.8405 53.1915C21.0855 53.5938 21.0855 54.0993 20.8405 54.5016L17.906 59.32C17.2795 60.3486 18.3156 61.5854 19.4381 61.1489L35.1972 55.0203C36.2678 54.604 36.2678 53.0891 35.1972 52.6728ZM34.8507 53.6087L19.0903 47.4835C18.7132 47.3374 18.6281 47.635 18.7592 47.8481L21.6904 52.6699C22.4311 54.0764 22.4484 53.6168 21.6944 55.0263L18.7585 59.846C18.5936 60.1142 18.7297 60.3501 19.0676 60.218L34.8291 54.0956C35.2591 53.9307 35.2583 53.7683 34.8507 53.6087Z" fill="#0D0D0D"/>
<path fill-rule="evenodd" clip-rule="evenodd" d="M79.1972 52.6728L63.4381 46.5442C62.3156 46.1077 61.2795 47.3445 61.906 48.3731L64.8405 53.1915C65.0855 53.5938 65.0855 54.0993 64.8405 54.5016L61.906 59.32C61.2795 60.3486 62.3156 61.5854 63.4381 61.1489L79.1972 55.0203C80.2678 54.604 80.2678 53.0891 79.1972 52.6728ZM78.8507 53.6087L63.0903 47.4835C62.7132 47.3374 62.6281 47.635 62.7592 47.8481L65.6904 52.6699C66.4311 54.0764 66.4484 53.6168 65.6944 55.0263L62.7585 59.846C62.5936 60.1142 62.7297 60.3501 63.0676 60.218L78.8291 54.0956C79.2591 53.9307 79.2583 53.7683 78.8507 53.6087Z" fill="#0D0D0D"/>
<path d="M63.0903 47.4835L78.8507 53.6087C79.2583 53.7683 79.2591 53.9307 78.8291 54.0956L63.0676 60.218C62.7297 60.3501 62.5936 60.1142 62.7585 59.846L65.6944 55.0263C66.4484 53.6168 66.4311 54.0764 65.6904 52.6699L62.7592 47.8481C62.6281 47.635 62.7132 47.3374 63.0903 47.4835Z" fill="#0D0D0D"/>
<path fill-rule="evenodd" clip-rule="evenodd" d="M106.803 55.0196L122.562 61.1482C123.685 61.5847 124.721 60.3479 124.094 59.3193L121.16 54.5009C120.915 54.0986 120.915 53.5931 121.16 53.1908L124.094 48.3724C124.721 47.3438 123.685 46.107 122.562 46.5435L106.803 52.6721C105.732 53.0884 105.732 54.6033 106.803 55.0196ZM109.85 54.0837C111.036 54.5321 119.203 57.5068 120.788 58.0841C120.877 58.1165 120.955 58.0177 120.905 57.937L119.039 54.8875C118.647 54.2477 118.646 53.4424 119.037 52.8019L120.905 49.739C120.954 49.6582 120.877 49.5595 120.788 49.5919C119.222 50.1637 111.216 53.0883 109.87 53.5968C109.44 53.7617 109.443 53.9241 109.85 54.0837Z" fill="#0D0D0D"/>
<path fill-rule="evenodd" clip-rule="evenodd" d="M150.803 55.0196L166.562 61.1482C167.685 61.5847 168.721 60.3479 168.094 59.3193L165.16 54.5009C164.915 54.0986 164.915 53.5931 165.16 53.1908L168.094 48.3724C168.721 47.3438 167.685 46.107 166.562 46.5435L150.803 52.6721C149.732 53.0884 149.732 54.6033 150.803 55.0196ZM153.85 54.0837C155.036 54.5321 163.203 57.5068 164.788 58.0841C164.877 58.1165 164.955 58.0177 164.905 57.937L163.039 54.8875C162.647 54.2477 162.646 53.4424 163.037 52.8019L164.905 49.739C164.954 49.6582 164.877 49.5595 164.788 49.5919C163.222 50.1637 155.216 53.0883 153.87 53.5968C153.44 53.7617 153.443 53.9241 153.85 54.0837Z" fill="#0D0D0D"/>
<path d="M153.85 54.0837C153.443 53.9241 153.44 53.7617 153.87 53.5968C155.216 53.0883 163.222 50.1637 164.788 49.5919C164.877 49.5595 164.954 49.6582 164.905 49.739L163.037 52.8019C162.646 53.4424 162.647 54.2477 163.039 54.8875L164.905 57.937C164.955 58.0177 164.877 58.1165 164.788 58.0841C163.203 57.5068 155.036 54.5321 153.85 54.0837Z" fill="#0D0D0D"/>
</svg>
