<svg width="878" height="459" viewBox="0 0 878 459" fill="none" xmlns="http://www.w3.org/2000/svg">
<rect width="878" height="459" fill="white"/>
<path d="M130.257 207.984L129.121 177.454L173.141 129.6H202.961L130.257 207.984ZM117.051 229V129.6H139.771V229H117.051ZM176.123 229L137.073 178.448L153.971 164.958L204.381 229H176.123ZM284.381 229L247.177 129.6H269.897L308.521 229H284.381ZM206.849 229L245.473 129.6H268.193L230.989 229H206.849ZM225.025 210.114V189.95H290.487V210.114H225.025ZM319.373 229V129.6H358.423C365.617 129.6 372.007 131.02 377.593 133.86C383.178 136.605 387.533 140.487 390.657 145.504C393.875 150.427 395.485 156.107 395.485 162.544C395.485 168.981 393.875 174.709 390.657 179.726C387.438 184.743 382.989 188.672 377.309 191.512C371.723 194.257 365.286 195.63 357.997 195.63H342.235V229H319.373ZM373.333 229L350.897 189.524L368.079 176.886L399.461 229H373.333ZM342.235 174.614H357.713C360.363 174.614 362.73 174.093 364.813 173.052C366.895 172.011 368.505 170.591 369.641 168.792C370.871 166.899 371.487 164.816 371.487 162.544C371.487 159.041 370.161 156.154 367.511 153.882C364.955 151.61 361.547 150.474 357.287 150.474H342.235V174.614ZM460.563 188.104L438.553 183.56L470.361 129.6H496.347L460.563 188.104ZM438.553 229V181.288H461.415V229H438.553ZM439.263 188.104L403.479 129.6H429.465L461.273 183.56L439.263 188.104ZM575.869 229L538.665 129.6H561.385L600.009 229H575.869ZM498.337 229L536.961 129.6H559.681L522.477 229H498.337ZM516.513 210.114V189.95H581.975V210.114H516.513ZM675.045 229V129.6H697.907V229H675.045ZM610.861 229V129.458H633.723V229H610.861ZM627.049 188.814V167.798H687.257V188.814H627.049ZM730.57 183.986C726.973 183.986 723.896 182.708 721.34 180.152C718.784 177.596 717.506 174.519 717.506 170.922C717.506 167.419 718.784 164.39 721.34 161.834C723.896 159.278 726.973 158 730.57 158C734.073 158 737.102 159.278 739.658 161.834C742.214 164.39 743.492 167.419 743.492 170.922C743.492 174.519 742.214 177.596 739.658 180.152C737.102 182.708 734.073 183.986 730.57 183.986ZM730.57 229.142C727.068 229.142 723.991 227.864 721.34 225.308C718.784 222.752 717.506 219.723 717.506 216.22C717.506 212.623 718.784 209.546 721.34 206.99C723.991 204.434 727.068 203.156 730.57 203.156C734.073 203.156 737.102 204.434 739.658 206.99C742.309 209.546 743.634 212.623 743.634 216.22C743.634 219.723 742.309 222.752 739.658 225.308C737.102 227.864 734.073 229.142 730.57 229.142Z" fill="#FFDD93"/>
</svg>
