<svg width="878" height="459" viewBox="0 0 878 459" fill="none" xmlns="http://www.w3.org/2000/svg">
<rect width="878" height="459" fill="white"/>
<path d="M138.257 192.984L137.121 162.454L181.141 114.6H210.961L138.257 192.984ZM125.051 214V114.6H147.771V214H125.051ZM184.123 214L145.073 163.448L161.971 149.958L212.381 214H184.123ZM292.381 214L255.177 114.6H277.897L316.521 214H292.381ZM214.849 214L253.473 114.6H276.193L238.989 214H214.849ZM233.025 195.114V174.95H298.487V195.114H233.025ZM327.373 214V114.6H366.423C373.617 114.6 380.007 116.02 385.593 118.86C391.178 121.605 395.533 125.487 398.657 130.504C401.875 135.427 403.485 141.107 403.485 147.544C403.485 153.981 401.875 159.709 398.657 164.726C395.438 169.743 390.989 173.672 385.309 176.512C379.723 179.257 373.286 180.63 365.997 180.63H350.235V214H327.373ZM381.333 214L358.897 174.524L376.079 161.886L407.461 214H381.333ZM350.235 159.614H365.713C368.363 159.614 370.73 159.093 372.813 158.052C374.895 157.011 376.505 155.591 377.641 153.792C378.871 151.899 379.487 149.816 379.487 147.544C379.487 144.041 378.161 141.154 375.511 138.882C372.955 136.61 369.547 135.474 365.287 135.474H350.235V159.614ZM468.563 173.104L446.553 168.56L478.361 114.6H504.347L468.563 173.104ZM446.553 214V166.288H469.415V214H446.553ZM447.263 173.104L411.479 114.6H437.465L469.273 168.56L447.263 173.104ZM583.869 214L546.665 114.6H569.385L608.009 214H583.869ZM506.337 214L544.961 114.6H567.681L530.477 214H506.337ZM524.513 195.114V174.95H589.975V195.114H524.513ZM683.045 214V114.6H705.907V214H683.045ZM618.861 214V114.458H641.723V214H618.861ZM635.049 173.814V152.798H695.257V173.814H635.049ZM738.57 168.986C734.973 168.986 731.896 167.708 729.34 165.152C726.784 162.596 725.506 159.519 725.506 155.922C725.506 152.419 726.784 149.39 729.34 146.834C731.896 144.278 734.973 143 738.57 143C742.073 143 745.102 144.278 747.658 146.834C750.214 149.39 751.492 152.419 751.492 155.922C751.492 159.519 750.214 162.596 747.658 165.152C745.102 167.708 742.073 168.986 738.57 168.986ZM738.57 214.142C735.068 214.142 731.991 212.864 729.34 210.308C726.784 207.752 725.506 204.723 725.506 201.22C725.506 197.623 726.784 194.546 729.34 191.99C731.991 189.434 735.068 188.156 738.57 188.156C742.073 188.156 745.102 189.434 747.658 191.99C750.309 194.546 751.634 197.623 751.634 201.22C751.634 204.723 750.309 207.752 747.658 210.308C745.102 212.864 742.073 214.142 738.57 214.142Z" fill="#FFDD93"/>
<path d="M231.141 301.439C229.509 301.437 227.941 301.228 226.437 300.811C224.965 300.362 223.622 299.769 222.406 299.032C221.223 298.263 220.247 297.415 219.48 296.486C218.713 295.526 218.234 294.501 218.042 293.413L225.676 291.259C226.027 292.187 226.635 293.003 227.498 293.708C228.394 294.381 229.513 294.733 230.857 294.766C232.169 294.799 233.258 294.496 234.122 293.857C235.019 293.217 235.467 292.386 235.468 291.362C235.468 290.562 235.149 289.858 234.509 289.249C233.902 288.641 233.022 288.176 231.87 287.855L227.119 286.652C225.456 286.234 224 285.577 222.753 284.68C221.537 283.784 220.578 282.695 219.875 281.414C219.204 280.102 218.869 278.614 218.87 276.95C218.873 273.718 219.947 271.206 222.092 269.416C224.237 267.594 227.262 266.684 231.166 266.687C233.31 266.688 235.182 266.994 236.781 267.603C238.381 268.18 239.74 269.045 240.859 270.198C242.011 271.351 242.921 272.791 243.592 274.52L236.007 276.77C235.751 275.906 235.192 275.122 234.328 274.417C233.497 273.712 232.409 273.36 231.065 273.359C229.721 273.358 228.665 273.661 227.896 274.268C227.16 274.876 226.791 275.755 226.79 276.907C226.79 277.707 227.093 278.38 227.701 278.924C228.309 279.437 229.14 279.821 230.196 280.078L234.947 281.281C237.667 281.955 239.778 283.221 241.281 285.078C242.815 286.903 243.582 288.984 243.58 291.32C243.578 293.432 243.081 295.239 242.088 296.743C241.127 298.246 239.718 299.413 237.861 300.244C236.005 301.042 233.765 301.441 231.141 301.439ZM261.983 300.885L261.747 295.701L261.752 288.933C261.752 287.653 261.641 286.533 261.418 285.573C261.227 284.613 260.827 283.876 260.22 283.364C259.644 282.82 258.796 282.547 257.676 282.546C256.78 282.545 255.996 282.753 255.324 283.168C254.651 283.584 254.075 284.143 253.595 284.847L247.02 282.682C247.597 281.499 248.35 280.427 249.278 279.468C250.239 278.509 251.408 277.741 252.784 277.166C254.161 276.591 255.761 276.305 257.585 276.306C260.081 276.308 262.192 276.773 263.92 277.703C265.647 278.632 266.942 279.929 267.805 281.593C268.668 283.258 269.098 285.226 269.097 287.498L268.991 300.89L261.983 300.885ZM255.406 301.456C252.59 301.454 250.399 300.829 248.832 299.58C247.265 298.298 246.482 296.474 246.484 294.106C246.486 291.578 247.303 289.69 248.936 288.444C250.569 287.197 252.857 286.575 255.801 286.577L262.377 286.582L262.374 291.43L258.582 291.427C257.014 291.426 255.878 291.649 255.173 292.096C254.469 292.512 254.116 293.119 254.116 293.919C254.115 294.495 254.371 294.96 254.883 295.312C255.427 295.632 256.163 295.793 257.091 295.794C258.019 295.794 258.819 295.603 259.491 295.219C260.195 294.804 260.74 294.26 261.124 293.589C261.541 292.917 261.749 292.197 261.75 291.429L263.67 291.43C263.667 294.598 262.978 297.062 261.6 298.821C260.255 300.58 258.19 301.458 255.406 301.456ZM279.178 288.466C279.18 285.874 279.693 283.714 280.719 281.987C281.776 280.26 283.089 278.965 284.657 278.102C286.258 277.239 287.922 276.808 289.65 276.809L289.645 284.105C288.173 284.104 286.781 284.263 285.469 284.582C284.188 284.901 283.148 285.397 282.348 286.068C281.547 286.708 281.146 287.539 281.146 288.563L279.178 288.466ZM273.649 300.894L273.666 276.894L281.154 276.899L281.137 300.899L273.649 300.894ZM301.03 300.914L309.831 276.92L317.559 276.926L307.798 300.919L301.03 300.914ZM300.358 300.913L290.631 276.906L298.359 276.912L307.126 300.918L300.358 300.913ZM330.766 311.208C328.814 311.206 327.102 311.077 325.63 310.82C324.19 310.563 322.959 310.226 321.935 309.809C320.911 309.392 320.064 308.928 319.392 308.415L322.324 302.465C322.836 302.69 323.444 302.962 324.148 303.283C324.852 303.635 325.715 303.94 326.739 304.197C327.763 304.453 328.995 304.582 330.435 304.583C331.555 304.584 332.547 304.361 333.411 303.914C334.308 303.498 334.996 302.827 335.477 301.899C335.989 301.003 336.246 299.868 336.247 298.492L336.263 276.94L343.751 276.945L343.736 298.209C343.734 300.897 343.22 303.217 342.194 305.168C341.169 307.119 339.696 308.606 337.775 309.629C335.854 310.683 333.518 311.21 330.766 311.208ZM329.046 300.022C326.806 300.021 324.871 299.571 323.239 298.674C321.64 297.745 320.393 296.432 319.498 294.735C318.635 293.039 318.205 291.022 318.207 288.686C318.208 286.126 318.642 283.935 319.507 282.111C320.405 280.288 321.654 278.881 323.254 277.89C324.887 276.867 326.824 276.357 329.064 276.358C330.92 276.36 332.519 276.873 333.862 277.898C335.238 278.891 336.293 280.316 337.027 282.172C337.762 284.029 338.128 286.253 338.126 288.845C338.125 291.149 337.755 293.133 337.018 294.796C336.281 296.46 335.224 297.755 333.847 298.682C332.503 299.577 330.902 300.024 329.046 300.022ZM331.259 293.784C332.219 293.785 333.035 293.561 333.707 293.114C334.412 292.634 334.94 291.995 335.293 291.195C335.677 290.395 335.87 289.483 335.871 288.459C335.871 287.371 335.68 286.427 335.297 285.627C334.913 284.827 334.37 284.202 333.666 283.754C332.994 283.305 332.179 283.081 331.219 283.08C330.291 283.079 329.458 283.303 328.722 283.75C328.018 284.198 327.457 284.821 327.041 285.621C326.656 286.421 326.447 287.364 326.415 288.452C326.446 289.476 326.653 290.389 327.037 291.189C327.452 291.989 328.028 292.63 328.763 293.11C329.499 293.559 330.331 293.783 331.259 293.784ZM364.201 300.96L363.772 296.544L363.786 276.96L371.274 276.965L371.257 300.965L364.201 300.96ZM348.321 289.236L348.33 276.948L355.818 276.954L355.809 289.242L348.321 289.236ZM355.809 289.242C355.808 290.49 355.952 291.498 356.239 292.266C356.526 293.034 356.942 293.595 357.486 293.947C358.03 294.3 358.669 294.492 359.405 294.525C360.845 294.526 361.934 294.126 362.67 293.327C363.407 292.495 363.776 291.264 363.777 289.632L366.033 289.633C366.031 292.161 365.646 294.321 364.876 296.113C364.107 297.872 363.05 299.215 361.705 300.142C360.393 301.069 358.856 301.532 357.096 301.531C355.176 301.529 353.561 301.144 352.249 300.375C350.938 299.574 349.947 298.374 349.276 296.773C348.637 295.173 348.318 293.124 348.32 290.628L348.321 289.236L355.809 289.242ZM376.164 300.969L376.182 276.969L383.238 276.974L383.667 281.39L383.652 300.974L376.164 300.969ZM391.62 300.98L391.629 288.692L399.117 288.698L399.108 300.986L391.62 300.98ZM391.629 288.692C391.63 287.412 391.487 286.404 391.199 285.668C390.912 284.9 390.496 284.339 389.953 283.987C389.441 283.635 388.801 283.442 388.033 283.41C386.593 283.376 385.505 283.776 384.768 284.607C384.032 285.407 383.663 286.638 383.662 288.302L381.406 288.301C381.407 285.773 381.793 283.629 382.562 281.87C383.332 280.078 384.373 278.719 385.685 277.792C387.03 276.865 388.582 276.402 390.342 276.403C392.262 276.405 393.878 276.806 395.189 277.607C396.501 278.376 397.476 279.56 398.115 281.161C398.786 282.761 399.12 284.81 399.118 287.306L399.117 288.698L391.629 288.692ZM427.265 301.582C425.633 301.581 424.066 301.372 422.562 300.955C421.09 300.506 419.747 299.913 418.531 299.176C417.348 298.407 416.372 297.558 415.605 296.63C414.838 295.669 414.359 294.645 414.167 293.557L421.801 291.402C422.152 292.331 422.76 293.147 423.623 293.852C424.519 294.524 425.638 294.877 426.982 294.91C428.294 294.943 429.383 294.64 430.247 294C431.143 293.361 431.592 292.529 431.593 291.505C431.593 290.705 431.274 290.001 430.634 289.393C430.027 288.784 429.147 288.32 427.995 287.999L423.244 286.795C421.581 286.378 420.125 285.721 418.878 284.824C417.662 283.927 416.703 282.839 416 281.558C415.329 280.246 414.994 278.757 414.995 277.093C414.998 273.861 416.072 271.35 418.217 269.56C420.362 267.737 423.387 266.827 427.291 266.83C429.435 266.832 431.307 267.137 432.906 267.746C434.506 268.324 435.865 269.189 436.984 270.341C438.136 271.494 439.046 272.935 439.717 274.663L432.132 276.914C431.876 276.05 431.317 275.265 430.453 274.561C429.622 273.856 428.534 273.503 427.19 273.502C425.846 273.501 424.79 273.804 424.021 274.412C423.285 275.019 422.916 275.899 422.915 277.051C422.915 277.851 423.218 278.523 423.826 279.068C424.434 279.58 425.265 279.965 426.321 280.222L431.072 281.425C433.792 282.099 435.903 283.365 437.405 285.222C438.94 287.047 439.707 289.127 439.705 291.463C439.703 293.575 439.206 295.383 438.213 296.886C437.252 298.39 435.843 299.557 433.986 300.387C432.13 301.186 429.889 301.584 427.265 301.582ZM458.108 301.029L457.872 295.845L457.877 289.077C457.877 287.797 457.766 286.677 457.543 285.716C457.352 284.756 456.952 284.02 456.345 283.508C455.769 282.963 454.921 282.691 453.801 282.69C452.905 282.689 452.121 282.896 451.449 283.312C450.776 283.727 450.2 284.287 449.72 284.991L443.145 282.826C443.722 281.642 444.475 280.571 445.403 279.612C446.364 278.652 447.533 277.885 448.909 277.31C450.286 276.735 451.886 276.448 453.71 276.45C456.206 276.451 458.317 276.917 460.045 277.846C461.772 278.776 463.067 280.072 463.93 281.737C464.793 283.402 465.223 285.37 465.222 287.642L465.116 301.034L458.108 301.029ZM451.531 301.6C448.715 301.598 446.524 300.972 444.957 299.723C443.39 298.442 442.607 296.617 442.609 294.249C442.611 291.721 443.428 289.834 445.061 288.587C446.694 287.34 448.982 286.718 451.926 286.72L458.502 286.725L458.499 291.573L454.707 291.57C453.139 291.569 452.003 291.792 451.298 292.24C450.594 292.655 450.241 293.263 450.241 294.063C450.24 294.639 450.496 295.103 451.008 295.456C451.552 295.776 452.287 295.937 453.215 295.937C454.143 295.938 454.944 295.747 455.616 295.363C456.32 294.948 456.865 294.404 457.249 293.732C457.666 293.061 457.874 292.341 457.875 291.573L459.795 291.574C459.792 294.742 459.103 297.206 457.725 298.965C456.38 300.724 454.315 301.602 451.531 301.6ZM469.774 301.037L469.791 277.037L476.847 277.043L477.133 280.067C477.902 278.883 478.847 277.988 479.967 277.381C481.119 276.774 482.384 276.471 483.76 276.472C485.744 276.473 487.375 276.89 488.655 277.723C489.966 278.524 490.925 279.757 491.532 281.421C492.269 279.822 493.278 278.607 494.559 277.776C495.839 276.912 497.28 276.482 498.88 276.483C501.76 276.485 503.919 277.366 505.358 279.127C506.828 280.889 507.546 283.625 507.512 287.337L507.502 301.065L500.014 301.06L500.023 288.772C500.024 287.492 499.88 286.483 499.593 285.747C499.337 284.979 498.954 284.419 498.442 284.066C497.93 283.714 497.322 283.522 496.618 283.489C495.243 283.456 494.186 283.855 493.45 284.687C492.745 285.486 492.392 286.718 492.391 288.382L492.382 301.054L484.894 301.048L484.903 288.76C484.904 287.48 484.76 286.472 484.473 285.736C484.217 284.968 483.834 284.408 483.322 284.055C482.81 283.703 482.202 283.51 481.498 283.478C480.123 283.445 479.066 283.844 478.33 284.676C477.625 285.475 477.272 286.707 477.271 288.371L477.262 301.043L469.774 301.037ZM512.288 310.669L512.312 277.069L519.368 277.074L519.797 281.49L519.776 310.674L512.288 310.669ZM526.598 301.655C524.614 301.654 522.951 301.156 521.608 300.163C520.264 299.138 519.257 297.682 518.587 295.793C517.916 293.905 517.582 291.664 517.584 289.072C517.586 286.448 517.923 284.209 518.597 282.353C519.27 280.466 520.279 279.026 521.624 278.035C522.968 277.012 524.633 276.502 526.617 276.503C528.857 276.505 530.792 277.018 532.424 278.043C534.055 279.036 535.302 280.477 536.165 282.366C537.027 284.223 537.458 286.463 537.456 289.087C537.454 291.679 537.02 293.919 536.155 295.806C535.289 297.693 534.04 299.148 532.408 300.171C530.775 301.162 528.838 301.657 526.598 301.655ZM524.684 294.742C525.644 294.742 526.492 294.503 527.228 294.023C527.964 293.544 528.557 292.888 529.005 292.057C529.454 291.193 529.679 290.201 529.68 289.081C529.68 287.961 529.473 286.985 529.058 286.153C528.642 285.288 528.051 284.616 527.283 284.135C526.548 283.655 525.7 283.414 524.74 283.414C523.78 283.413 522.916 283.652 522.147 284.132C521.411 284.611 520.834 285.283 520.418 286.146C520.001 287.01 519.792 287.986 519.792 289.074C519.791 290.194 519.998 291.186 520.413 292.05C520.829 292.883 521.404 293.539 522.14 294.02C522.876 294.5 523.724 294.741 524.684 294.742ZM555.373 301.1L555.137 295.916L555.142 289.148C555.143 287.868 555.032 286.748 554.809 285.788C554.617 284.828 554.218 284.091 553.61 283.579C553.035 283.034 552.187 282.762 551.067 282.761C550.171 282.76 549.387 282.968 548.714 283.383C548.042 283.799 547.466 284.358 546.985 285.062L540.411 282.897C540.988 281.714 541.74 280.642 542.669 279.683C543.63 278.723 544.798 277.956 546.175 277.381C547.551 276.806 549.151 276.52 550.975 276.521C553.471 276.523 555.583 276.988 557.31 277.917C559.038 278.847 560.333 280.144 561.195 281.808C562.058 283.473 562.489 285.441 562.487 287.713L562.381 301.105L555.373 301.1ZM548.797 301.671C545.981 301.669 543.789 301.044 542.222 299.794C540.655 298.513 539.873 296.689 539.874 294.321C539.876 291.793 540.694 289.905 542.326 288.659C543.959 287.412 546.248 286.789 549.192 286.792L555.768 286.796L555.764 291.644L551.972 291.642C550.404 291.64 549.268 291.864 548.564 292.311C547.859 292.727 547.507 293.334 547.506 294.134C547.506 294.71 547.762 295.174 548.273 295.527C548.817 295.847 549.553 296.008 550.481 296.008C551.409 296.009 552.209 295.818 552.882 295.434C553.586 295.019 554.13 294.475 554.515 293.803C554.931 293.132 555.14 292.412 555.14 291.644L557.06 291.645C557.058 294.813 556.368 297.277 554.991 299.036C553.646 300.795 551.581 301.673 548.797 301.671ZM567.039 301.109L567.057 277.109L574.113 277.114L574.542 281.53L574.527 301.114L567.039 301.109ZM582.495 301.12L582.504 288.832L589.992 288.837L589.983 301.125L582.495 301.12ZM582.504 288.832C582.505 287.552 582.362 286.544 582.074 285.808C581.787 285.039 581.371 284.479 580.828 284.127C580.316 283.774 579.676 283.582 578.908 283.549C577.468 283.516 576.38 283.915 575.643 284.747C574.907 285.546 574.538 286.778 574.537 288.442L572.281 288.44C572.282 285.912 572.668 283.769 573.437 282.009C574.207 280.218 575.248 278.859 576.56 277.932C577.905 277.005 579.457 276.542 581.217 276.543C583.137 276.544 584.753 276.946 586.064 277.747C587.376 278.515 588.351 279.7 588.99 281.301C589.661 282.901 589.995 284.949 589.993 287.445L589.992 288.837L582.504 288.832ZM594.555 301.129L594.572 277.129L601.628 277.134L602.057 281.55L602.043 301.134L594.555 301.129ZM610.011 301.14L610.02 288.852L617.508 288.858L617.499 301.146L610.011 301.14ZM610.02 288.852C610.021 287.572 609.878 286.564 609.59 285.828C609.303 285.06 608.887 284.499 608.343 284.147C607.832 283.794 607.192 283.602 606.424 283.569C604.984 283.536 603.895 283.936 603.159 284.767C602.422 285.567 602.053 286.798 602.052 288.462L599.796 288.461C599.798 285.933 600.184 283.789 600.953 282.029C601.722 280.238 602.763 278.879 604.076 277.952C605.421 277.025 606.973 276.562 608.733 276.563C610.653 276.565 612.269 276.966 613.58 277.767C614.891 278.536 615.867 279.72 616.505 281.321C617.176 282.921 617.511 284.97 617.509 287.466L617.508 288.858L610.02 288.852Z" fill="#FFDD93"/>
<rect x="169.033" y="242.816" width="6" height="82" transform="rotate(0.0419549 169.033 242.816)" fill="#FFDD93"/>
<rect x="648.027" y="249.168" width="6" height="82" transform="rotate(0.0419549 648.027 249.168)" fill="#FFDD93"/>
<rect x="182.033" y="242.828" width="6" height="82" transform="rotate(0.0419549 182.033 242.828)" fill="#FFDD93"/>
<rect x="661.027" y="249.18" width="6" height="82" transform="rotate(0.0419549 661.027 249.18)" fill="#FFDD93"/>
</svg>
