<svg width="512" height="512" viewBox="0 0 512 512" fill="none" xmlns="http://www.w3.org/2000/svg">
<rect width="512" height="512" fill="#FFDD93"/>
<path d="M149.427 342.674H121.387V312.771C119.686 314.781 116.826 316.558 112.817 318.1C108.798 319.643 104.013 320.419 98.4519 320.419C92.4229 320.419 86.6705 319.419 81.1838 317.409C75.6971 315.398 70.9442 312.505 66.9355 308.718C62.9162 304.93 59.7157 300.26 57.3232 294.686C54.9308 289.122 53.7292 282.708 53.7292 275.442C53.7292 268.644 54.8457 262.687 57.0893 257.592C59.3222 252.496 62.3846 248.198 66.2444 244.72C70.1042 241.241 74.5807 238.614 79.6845 236.837C84.7778 235.061 90.19 234.167 95.9106 234.167C100.855 234.167 105.64 234.859 110.276 236.252C114.912 237.646 118.623 239.656 121.398 242.284V216.317H44V194.52H229.153V216.317H149.437V243.443C151.904 240.975 155.466 238.965 160.102 237.412C164.738 235.869 169.991 235.093 175.861 235.093C181.73 235.093 187.451 236.018 192.544 237.88C197.637 239.731 202.05 242.443 205.75 245.996C209.461 249.549 212.353 253.847 214.437 258.868C216.521 263.889 217.563 269.644 217.563 276.144C217.563 283.25 216.362 289.474 213.969 294.803C211.577 300.133 208.291 304.579 204.123 308.132C199.955 311.686 195.085 314.356 189.524 316.132C183.963 317.909 178.094 318.802 171.916 318.802C170.214 318.802 168.088 318.685 165.546 318.451C163.005 318.217 161.102 317.866 159.868 317.409L162.42 295.612C163.654 295.92 164.738 296.08 165.663 296.08H169.14C174.393 296.08 178.944 294.42 182.815 291.09C186.674 287.771 188.61 282.782 188.61 276.134C188.61 270.261 186.908 265.698 183.516 262.453C180.114 259.209 175.403 257.581 169.385 257.581C163.367 257.581 158.337 259.549 154.786 263.496C151.234 267.432 149.459 272.964 149.459 280.07V342.663L149.427 342.674ZM121.611 264.315C119.761 262.155 117.283 260.336 114.199 258.868C111.105 257.4 107.554 256.666 103.534 256.666C97.5055 256.666 92.5293 258.4 88.5844 261.879C84.6502 265.357 82.6724 270.336 82.6724 276.836C82.6724 283.335 84.5651 288.622 88.3505 292.25C92.1358 295.888 96.9633 297.697 102.833 297.697C107.618 297.697 111.945 296.154 115.805 293.058C119.665 289.973 121.6 285.261 121.6 278.921V264.315H121.611Z" fill="white"/>
<path d="M241.644 216.332H222.643V194.535H289.376V216.332H270.14V342.679H241.633V216.332H241.644Z" fill="white"/>
<path d="M409.651 216.327V342.674H381.143V307.43C379.442 308.824 376.157 310.366 371.297 312.068C366.427 313.77 360.058 314.622 352.179 314.622C344.917 314.622 337.771 313.547 330.743 311.377C323.714 309.218 317.377 305.696 311.741 300.824C306.106 295.952 301.544 289.622 298.067 281.814C294.59 274.017 292.857 264.538 292.857 253.411L297.95 253.177C307.68 252.709 314.985 251.017 319.844 248.081C324.714 245.145 327.149 240.199 327.149 233.242C327.149 229.848 326.458 226.71 325.065 223.848C323.672 220.987 321.97 218.476 319.971 216.317H284.744V194.52H428.652V216.317H409.651V216.327ZM381.154 281.708V216.327H348.946C350.797 218.497 352.455 221.391 353.933 225.018C355.401 228.657 356.134 232.635 356.134 236.954C356.134 242.209 355.241 246.847 353.466 250.869C351.69 254.89 349.297 258.251 346.278 260.953C343.268 263.655 339.749 265.783 335.73 267.325C331.71 268.868 327.468 269.878 322.981 270.336C323.129 272.963 323.948 275.591 325.416 278.219C326.883 280.846 328.924 283.165 331.561 285.176C334.188 287.186 337.356 288.814 341.057 290.048C344.768 291.282 349.01 291.899 353.806 291.899C360.909 291.899 366.778 290.782 371.414 288.537C376.05 286.303 379.293 284.016 381.143 281.697L381.154 281.708Z" fill="white"/>
<path d="M379.525 195.923V193.604C376.739 191.285 373.89 187.775 370.955 183.051C368.02 178.339 366.553 172.499 366.553 165.552C366.553 160.456 367.52 155.776 369.445 151.521C371.38 147.276 374.038 143.638 377.441 140.627C380.844 137.617 384.852 135.255 389.488 133.553C394.124 131.851 399.069 131 404.321 131C409.882 131 414.944 131.574 419.505 132.734C424.067 133.894 427.735 135.319 430.511 137.021L424.258 156.722C422.408 155.946 420.324 155.254 418.006 154.637C415.688 154.02 413.136 153.712 410.361 153.712C405.108 153.712 400.855 155.148 397.612 157.999C394.369 160.861 392.742 165.297 392.742 171.328C392.742 176.743 394.018 181.605 396.57 185.934C399.122 190.264 401.472 193.349 403.641 195.21L379.546 195.902L379.525 195.923Z" fill="white"/>
<path d="M437.381 245.005C437.381 242.877 437.785 240.888 438.604 239.005C439.412 237.132 440.507 235.505 441.879 234.133C443.25 232.76 444.845 231.696 446.653 230.952C448.46 230.207 450.364 229.824 452.363 229.824C456.478 229.824 459.976 231.26 462.847 234.133C465.718 237.005 467.153 240.632 467.153 245.005C467.153 249.749 465.718 253.504 462.847 256.249C459.976 258.993 456.478 260.366 452.363 260.366C448.248 260.366 444.867 258.993 441.879 256.249C438.88 253.504 437.381 249.76 437.381 245.005ZM437.381 301.779C437.381 297.407 438.88 293.79 441.879 290.907C444.877 288.035 448.365 286.599 452.363 286.599C456.361 286.599 459.976 288.035 462.847 290.907C465.718 293.779 467.153 297.407 467.153 301.779C467.153 306.524 465.718 310.247 462.847 312.928C459.976 315.608 456.478 316.959 452.363 316.959C448.248 316.959 444.867 315.619 441.879 312.928C438.88 310.247 437.381 306.524 437.381 301.779Z" fill="white"/>
</svg>
